HIERARCHY
ROOT hip
{
  OFFSET 0 0 0
  CHANNELS 6 Xposition Yposition Zposition Zrotation Yrotation Xrotation
  JOINT abdomen
  {
    OFFSET 0 20.6881 -0.73152
    CHANNELS 3 Zrotation Xrotation Yrotation
    JOINT chest
    {
      OFFSET 0 11.7043 -0.48768
      CHANNELS 3 Zrotation Xrotation Yrotation
      JOINT neck
      {
        OFFSET 0 22.1894 -2.19456
        CHANNELS 3 Zrotation Xrotation Yrotation
        JOINT head
        {
          OFFSET -0.24384 7.07133 1.2192
          CHANNELS 3 Zrotation Xrotation Yrotation
          JOINT leftEye
          {
            OFFSET 4.14528 8.04674 8.04672
            CHANNELS 3 Zrotation Xrotation Yrotation
            End Site
            {
              OFFSET 1 0 0
            }
          }
          JOINT rightEye
          {
            OFFSET -3.6576 8.04674 8.04672
            CHANNELS 3 Zrotation Xrotation Yrotation
            End Site
            {
              OFFSET 1 0 0
            }
          }
        }
      }
      JOINT rCollar
      {
        OFFSET -2.68224 19.2634 -4.8768
        CHANNELS 3 Zrotation Xrotation Yrotation
        JOINT rShldr
        {
          OFFSET -8.77824 -1.95073 1.46304
          CHANNELS 3 Zrotation Xrotation Yrotation
          JOINT rForeArm
          {
            OFFSET -28.1742 -1.7115 0.48768
            CHANNELS 3 Zrotation Xrotation Yrotation
            JOINT rHand
            {
              OFFSET -22.5879 0.773209 7.07136
              CHANNELS 3 Zrotation Xrotation Yrotation
              JOINT rThumb1
              {
                OFFSET -1.2192 -0.487915 3.41376
                CHANNELS 3 Zrotation Xrotation Yrotation
                JOINT rThumb2
                {
                  OFFSET -3.37035 -0.52449 3.41376
                  CHANNELS 3 Zrotation Xrotation Yrotation
                  End Site
                  {
                    OFFSET -1.78271 -1.18214 1.43049
                  }
                }
              }
              JOINT rIndex1
              {
                OFFSET -7.75947 0.938293 5.60832
                CHANNELS 3 Zrotation Xrotation Yrotation
                JOINT rIndex2
                {
                  OFFSET -2.54057 -0.884171 1.56538
                  CHANNELS 3 Zrotation Xrotation Yrotation
                  End Site
                  {
                    OFFSET -1.62519 -0.234802 1.16502
                  }
                }
              }
              JOINT rMid1
              {
                OFFSET -8.24714 1.18213 3.41376
                CHANNELS 3 Zrotation Xrotation Yrotation
                JOINT rMid2
                {
                  OFFSET -3.10165 -0.590103 1.0647
                  CHANNELS 3 Zrotation Xrotation Yrotation
                  End Site
                  {
                    OFFSET -2.48547 -0.328903 0.83742
                  }
                }
              }
              JOINT rRing1
              {
                OFFSET -8.82822 0.546677 1.51678
                CHANNELS 3 Zrotation Xrotation Yrotation
                JOINT rRing2
                {
                  OFFSET -2.60934 -0.819778 -0.0198488
                  CHANNELS 3 Zrotation Xrotation Yrotation
                  End Site
                  {
                    OFFSET -2.33842 -0.294052 0.168128
                  }
                }
              }
              JOINT rPinky1
              {
                OFFSET -8.27202 -0.0477905 -0.4584
                CHANNELS 3 Zrotation Xrotation Yrotation
                JOINT rPinky2
                {
                  OFFSET -1.82734 -0.647385 -0.700984
                  CHANNELS 3 Zrotation Xrotation Yrotation
                  End Site
                  {
                    OFFSET -1.69225 -0.51767 -0.607171
                  }
                }
              }
            }
          }
        }
      }
      JOINT lCollar
      {
        OFFSET 2.68224 19.2634 -4.8768
        CHANNELS 3 Zrotation Xrotation Yrotation
        JOINT lShldr
        {
          OFFSET 8.77824 -1.95073 1.46304
          CHANNELS 3 Zrotation Xrotation Yrotation
          JOINT lForeArm
          {
            OFFSET 28.1742 -1.7115 0.48768
            CHANNELS 3 Zrotation Xrotation Yrotation
            JOINT lHand
            {
              OFFSET 22.5879 0.773209 7.07136
              CHANNELS 3 Zrotation Xrotation Yrotation
              JOINT lThumb1
              {
                OFFSET 1.2192 -0.487915 3.41376
                CHANNELS 3 Zrotation Xrotation Yrotation
                JOINT lThumb2
                {
                  OFFSET 3.37035 -0.52449 3.41376
                  CHANNELS 3 Zrotation Xrotation Yrotation
                  End Site
                  {
                    OFFSET 1.78271 -1.18214 1.43049
                  }
                }
              }
              JOINT lIndex1
              {
                OFFSET 7.75947 0.938293 5.60832
                CHANNELS 3 Zrotation Xrotation Yrotation
                JOINT lIndex2
                {
                  OFFSET 2.54057 -0.884171 1.56538
                  CHANNELS 3 Zrotation Xrotation Yrotation
                  End Site
                  {
                    OFFSET 1.62519 -0.234802 1.16502
                  }
                }
              }
              JOINT lMid1
              {
                OFFSET 8.24714 1.18213 3.41376
                CHANNELS 3 Zrotation Xrotation Yrotation
                JOINT lMid2
                {
                  OFFSET 3.10165 -0.590103 1.0647
                  CHANNELS 3 Zrotation Xrotation Yrotation
                  End Site
                  {
                    OFFSET 2.48547 -0.328903 0.83742
                  }
                }
              }
              JOINT lRing1
              {
                OFFSET 8.82822 0.546677 1.51678
                CHANNELS 3 Zrotation Xrotation Yrotation
                JOINT lRing2
                {
                  OFFSET 2.60934 -0.819778 -0.0198488
                  CHANNELS 3 Zrotation Xrotation Yrotation
                  End Site
                  {
                    OFFSET 2.33842 -0.294052 0.168128
                  }
                }
              }
              JOINT lPinky1
              {
                OFFSET 8.27202 -0.0477905 -0.4584
                CHANNELS 3 Zrotation Xrotation Yrotation
                JOINT lPinky2
                {
                  OFFSET 1.82734 -0.647385 -0.700984
                  CHANNELS 3 Zrotation Xrotation Yrotation
                  End Site
                  {
                    OFFSET 1.69225 -0.51767 -0.607171
                  }
                }
              }
            }
          }
        }
      }
    }
  }
  JOINT rButtock
  {
    OFFSET -8.77824 4.35084 1.2192
    CHANNELS 3 Zrotation Xrotation Yrotation
    JOINT rThigh
    {
      OFFSET 0 -1.70687 -2.19456
      CHANNELS 3 Zrotation Xrotation Yrotation
      JOINT rShin
      {
        OFFSET 0 -36.8199 0.73152
        CHANNELS 3 Zrotation Xrotation Yrotation
        JOINT rFoot
        {
          OFFSET 0.73152 -45.1104 -5.12064
          CHANNELS 3 Zrotation Xrotation Yrotation
          End Site
          {
            OFFSET -1.1221 -3.69964 12.103
          }
        }
      }
    }
  }
  JOINT lButtock
  {
    OFFSET 8.77824 4.35084 1.2192
    CHANNELS 3 Zrotation Xrotation Yrotation
    JOINT lThigh
    {
      OFFSET 0 -1.70687 -2.19456
      CHANNELS 3 Zrotation Xrotation Yrotation
      JOINT lShin
      {
        OFFSET 0 -36.8199 0.73152
        CHANNELS 3 Zrotation Xrotation Yrotation
        JOINT lFoot
        {
          OFFSET -0.73152 -45.1104 -5.12064
          CHANNELS 3 Zrotation Xrotation Yrotation
          End Site
          {
            OFFSET 1.1221 -3.69964 12.103
          }
        }
      }
    }
  }
}
MOTION
Frames:	4
Frame Time:	0.03333
1.7791000000000001 61.0911 -25.1499 -175.258168 24.218836 -170.396008 -5.522198 11.297632 -126.963153 5.128856 6.616093 154.68175 16.584379 21.97573 81.619555 -38.526453 15.827525 -129.892169 -15.848982 -3.758193 26.524651 -137.509196 -10.900848 -27.57797 -148.157879 -14.95423 -175.182348 101.158786 45.364781 -78.06567 35.956462 14.828392 24.208209 -41.902483 68.268804 33.983913 -12.287518 -38.521929 5.212965 7.451944 -29.655941 -74.352965 -104.303265 59.493583 79.033128 -91.854113 53.62845 29.18241 -172.792114 32.830998 165.847702 -17.419668 23.176572 -35.521593 13.689071 42.830366 -9.733763 -116.205735 4.077724 87.355721 -169.04901 -12.018711 -127.585271 108.967568 4.270407 -148.85047 6.985683 -2.835395 -18.742338 -125.084102 73.181563 40.120305 -127.080238 51.208511 -88.611824 135.141787 39.19475 -116.410268 -2.382692 5.78024 31.007517 -65.63362 -50.497292 -3.368758 83.255843 -66.770523 -163.222919 -110.491739 -6.987932 31.292504 -85.472656 -74.628563 -20.212228 177.849584 9.403122 -125.274091 130.986923 -6.531621 169.690759 78.053637 72.058839 -117.545297 -141.960511 56.559292 150.459852 -131.34079 -11.483733 -135.320782 116.445122 74.893296 -0.0 -139.535137 15.071357 -11.590563 68.800911 39.352155 157.066658 22.773064 9.537038 121.317768 -70.369983 9.342578 -13.602916 90.701065 -29.812418 90.348556 71.756272 10.146229 -43.361835 -90.373985 18.736665 -3.253768
2.2522 61.891799999999996 -26.5231 -173.697566 26.749307 -171.570173 -6.533639 16.461654 1.596798 4.136117 -11.625871 28.298323 15.777443 19.108428 67.270771 -37.48964 6.97752 -116.811644 -12.745243 -3.383647 29.627092 -132.704088 -10.539672 -23.789751 -152.219708 3.545759 -179.778402 109.472129 45.681836 -103.575088 -6.160114 50.431681 51.604431 -8.236735 26.24866 8.530387 -165.173933 37.754143 66.205981 -155.210755 -11.654649 20.734777 -164.430631 -20.330577 139.095702 -15.824688 -53.934725 -66.634567 5.666098 65.165368 -23.367633 -149.679816 49.915396 84.09346 20.378572 61.367698 -9.986276 -49.975748 -8.496776 57.150726 -36.736684 3.92305 -1.194807 18.357441 77.953131 128.181959 6.551862 -2.792201 -19.121504 -83.285354 -0.814119 10.024899 173.516121 -33.707671 -46.82808 158.546547 7.103643 -140.854403 23.78024 63.206733 8.959385 -30.854195 -26.158131 -35.38066 90.938526 -13.489776 -138.094863 -7.486022 -47.851603 115.864577 -38.46939 1.215875 2.232998 141.39565 77.447965 -112.240858 94.579834 -60.655446 123.419053 129.549965 50.214944 -130.080924 153.401663 -44.455539 85.153202 80.824561 48.839138 46.115516 16.21298 75.630488 77.380988 -112.915877 6.623972 -0.0 75.354535 0.345466 92.104012 -152.70634 12.464044 -159.742232 -145.9852 47.111673 -42.648654 168.540458 5.7682 97.417867 75.988712 -33.920738 -30.750751 -124.676623 37.191456 28.29387
2.6342999999999996 63.0923 -27.395799999999998 -171.045712 30.508099 -168.701264 -2.950919 13.036677 0.0 2.397771 -8.563266 31.734768 -1.718074 22.386589 -77.743806 32.473638 -9.926475 31.084814 -10.168938 -3.389883 36.791995 -149.805392 -7.365914 -26.840222 9.504963 44.543698 -14.944618 -92.145252 26.306741 65.452452 91.269435 25.005233 -117.196683 -164.602627 47.231138 143.343288 -73.900978 14.430856 -1.541241 69.123646 18.822416 11.488004 -5.758899 -34.722932 -18.500526 -54.613198 34.283983 76.806892 -163.111062 75.252893 153.678838 153.564419 -61.850717 179.09099 -35.022577 86.533805 46.61656 74.698548 -53.806798 107.200418 -106.088839 -51.013704 -69.368949 -166.232983 -1.981695 -30.765008 118.970844 40.733578 -110.897338 23.990766 -21.774685 -75.41572 -72.345061 0.158295 -172.340374 81.380243 56.820443 -60.022057 158.726106 -75.144301 -144.575961 14.195848 -21.296388 37.984939 122.411916 -76.011251 -123.568228 -56.763745 41.950898 -37.54548 121.932976 -35.012945 -151.968288 67.767035 49.987881 -87.201008 145.540478 -5.780101 179.196138 136.38898 32.907156 -128.940548 -70.241152 69.850581 93.749049 85.990654 -3.724574 -87.215051 -82.881309 -17.327181 14.703051 67.452267 -44.014194 60.151594 63.682227 -3.224574 -79.147558 -85.337954 8.743451 6.850939 -16.479238 24.457248 35.546381 -82.781105 -68.399316 0.0 86.282723 -6.205001 145.072794 -107.06927 66.481242 -169.820967
2.9148 63.28359999999999 -27.898 -168.347172 34.597803 -168.318657 0.144189 9.255284 176.156662 -0.670027 2.934313 -141.190769 21.768614 23.517268 113.190105 -24.769999 38.873451 -153.78088 -21.073033 -7.679597 39.68403 -149.654078 -4.101726 -15.044492 17.351315 70.843987 -16.614722 129.194381 -2.803576 150.270532 -37.046916 50.005894 83.987592 -2.481794 7.330729 4.538232 135.904652 0.85448 95.383709 -110.468197 44.214977 -7.744488 -170.016781 -4.159678 127.885989 -171.929742 -3.797743 152.241046 -159.269923 2.071292 168.530738 46.927404 53.093442 -67.547377 -158.458588 5.124544 -165.125543 -88.633751 -16.993032 -60.709769 -138.915269 -42.500899 -102.335907 119.086914 -36.335048 -91.249279 133.565214 30.370973 -121.43284 67.701915 -13.183309 -41.748356 -41.17238 21.216013 143.445031 149.277872 35.779166 -126.509682 137.593072 72.921674 -114.432144 26.52034 -27.038232 -21.410044 92.350011 -23.097567 -130.268864 -40.535664 77.414823 -19.139915 102.193473 26.978608 -131.001606 -23.947123 68.625317 -5.276306 72.47027 76.722247 -87.51902 -15.054133 25.213255 -18.46308 56.781473 17.749519 11.851353 -109.563719 -31.89268 -50.849724 -68.338991 4.673867 73.276418 -49.354985 -72.174421 129.257577 -75.803619 -4.353858 -115.820605 71.917807 28.947301 176.309765 -24.89926 26.201354 43.22112 -104.256821 -62.244468 -15.445984 84.579947 -15.241804 162.251541 -6.417064 63.527482 92.349392
